<?xml version="1.0" standalone="no"?>
<!DOCTYPE svg PUBLIC "-//W3C//DTD SVG 20010904//EN"
 "http://www.w3.org/TR/2001/REC-SVG-20010904/DTD/svg10.dtd">
<svg version="1.0" xmlns="http://www.w3.org/2000/svg"
 width="160.000000pt" height="160.000000pt" viewBox="0 0 160.000000 160.000000"
 preserveAspectRatio="xMidYMid meet">
<metadata>
Created by potrace 1.11, written by Peter Selinger 2001-2013
</metadata>
<g transform="translate(0.000000,160.000000) scale(0.100000,-0.100000)"
fill="#000000" stroke="none">
<path d="M700 1445 c-300 -59 -524 -315 -535 -610 -6 -187 55 -346 185 -476
222 -224 556 -268 828 -107 103 60 263 242 236 268 -5 4 -37 20 -72 34 -34 15
-91 39 -125 55 -91 41 -88 41 -121 -2 -72 -94 -164 -138 -281 -133 -290 12
-428 364 -223 568 70 70 126 93 233 93 77 0 98 -4 145 -26 54 -26 108 -72 138
-116 8 -13 19 -23 25 -23 8 0 276 118 286 126 11 9 -61 108 -123 169 -82 80
-192 143 -296 170 -84 22 -217 26 -300 10z m330 -59 c41 -14 99 -41 129 -59
58 -35 166 -137 193 -184 l17 -29 -113 -51 -113 -50 -27 33 c-60 76 -186 134
-289 134 -177 0 -333 -132 -365 -308 -26 -144 38 -294 160 -374 66 -43 111
-59 186 -62 114 -6 218 35 292 115 l45 48 80 -35 c44 -20 95 -42 113 -49 38
-17 36 -24 -22 -94 -188 -224 -508 -290 -771 -158 -148 73 -252 191 -313 355
-22 57 -25 84 -26 187 0 106 3 128 26 193 73 197 230 343 435 401 101 29 262
23 363 -13z"/>
</g>
</svg>
